
<svg viewBox="1 1 100 100" width="100" height="100" xmlns="http://www.w3.org/2000/svg">
<path fill="#7e6fff" d="M 37.364 14.636 C 17.273 14.636 1 30.91 1 51 C 1 71.09 17.273 87.364 37.364 87.364 C 57.454 87.364 73.728 71.09 73.728 51 C 73.728 30.91 57.454 14.636 37.364 14.636 Z M 51 44.183 L 41.91 44.183 L 41.91 66.91 L 32.818 66.91 L 32.818 44.183 L 23.728 44.183 L 23.728 37.364 L 51 37.364 L 51 44.183 Z M 88.5 13.5 L 101 19.182 L 88.5 24.864 L 82.818 37.364 L 77.136 24.864 L 64.636 19.182 L 77.136 13.5 L 82.818 1 L 88.5 13.5 Z M 88.5 77.136 L 101 82.818 L 88.5 88.5 L 82.818 101 L 77.136 88.5 L 64.636 82.818 L 77.136 77.136 L 82.818 64.636 L 88.5 77.136 Z"></path>
</svg>