<svg viewBox="126.824 51.596 160 160" width="160" height="160" xmlns="http://www.w3.org/2000/svg">
<path fill="#7e6fff" d="M 185.006 73.414 C 152.861 73.414 126.824 99.452 126.824 131.596 C 126.824 163.74 152.861 189.778 185.006 189.778 C 217.15 189.778 243.189 163.74 243.189 131.596 C 243.189 99.452 217.15 73.414 185.006 73.414 Z M 206.824 120.689 L 192.28 120.689 L 192.28 157.052 L 177.733 157.052 L 177.733 120.689 L 163.189 120.689 L 163.189 109.778 L 206.824 109.778 L 206.824 120.689 Z M 266.824 71.596 L 286.824 80.687 L 266.824 89.778 L 257.733 109.778 L 248.642 89.778 L 228.642 80.687 L 248.642 71.596 L 257.733 51.596 L 266.824 71.596 Z M 266.824 173.414 L 286.824 182.505 L 266.824 191.596 L 257.733 211.596 L 248.642 191.596 L 228.642 182.505 L 248.642 173.414 L 257.733 153.414 L 266.824 173.414 Z"></path>
</svg>